<?xml version="1.0" encoding="utf-8"?>
<!-- Generator: Adobe Illustrator 26.0.1, SVG Export Plug-In . SVG Version: 6.00 Build 0)  -->
<svg version="1.0" id="Layer_1" xmlns="http://www.w3.org/2000/svg" xmlns:xlink="http://www.w3.org/1999/xlink" x="0px" y="0px"
	 viewBox="0 0 512 512" style="enable-background:new 0 0 512 512;" xml:space="preserve">
<style type="text/css">
	.st0{fill:#FFFFFF;}
</style>
<g>
	<path class="st0" d="M191.4,24.7H73.4c-26.9,0-48.7,21.8-48.7,48.7v118.1c0,26.9,21.8,48.7,48.7,48.7h118.1
		c26.9,0,48.7-21.8,48.7-48.7V73.4C240.1,46.5,218.3,24.7,191.4,24.7z M215.8,191.4c0,13.4-10.9,24.4-24.4,24.4H73.4
		c-13.4,0-24.4-10.9-24.4-24.4V73.4C49,59.9,59.9,49,73.4,49h118.1c13.4,0,24.4,10.9,24.4,24.4V191.4z M191.4,271.8H73.4
		c-26.9,0-48.7,21.8-48.7,48.7v118.1c0,26.9,21.8,48.7,48.7,48.7h118.1c26.9,0,48.7-21.8,48.7-48.7V320.6
		C240.1,293.7,218.3,271.9,191.4,271.8L191.4,271.8z M215.8,438.6c0,13.4-10.9,24.4-24.4,24.4H73.4C59.9,462.9,49,452,49,438.6v-118
		c0-13.4,10.9-24.4,24.4-24.4h118.1c13.4,0,24.4,10.9,24.4,24.4V438.6z M438.6,271.9H320.6c-26.9,0-48.7,21.8-48.7,48.7v118.1
		c0,26.9,21.8,48.7,48.7,48.7h118.1c26.9,0,48.7-21.8,48.7-48.7V320.6C487.3,293.7,465.5,271.9,438.6,271.9z M463,438.6
		c0,13.4-10.9,24.4-24.4,24.4H320.6c-13.4,0-24.4-10.9-24.4-24.4V320.6c0-13.4,10.9-24.4,24.4-24.4h118.1
		c13.4,0,24.4,10.9,24.4,24.4V438.6z M379.6,168.9c20.2,0,36.5-16.4,36.5-36.5s-16.4-36.5-36.5-36.5s-36.5,16.4-36.5,36.5
		S359.4,168.9,379.6,168.9z M379.6,120.2c6.7,0,12.2,5.5,12.2,12.2s-5.5,12.2-12.2,12.2s-12.2-5.5-12.2-12.2
		S372.9,120.2,379.6,120.2z M276.9,156c-2.7,3.9-2.9,9-0.6,13.1l19.8,34.4c2.4,4.1,6.9,6.5,11.6,6c7-0.6,13.8-2.2,20.2-4.9l14.8,8.5
		c0.9,6.9,2.9,13.7,5.8,20c2,4.3,6.3,7.1,11.1,7.1h39.7c4.7,0,9.1-2.8,11.1-7.1c2.9-6.3,4.9-13.1,5.8-20l14.8-8.5
		c6.5,2.6,13.3,4.3,20.2,4.9c4.7,0.4,9.3-1.9,11.6-6l19.8-34.4c2.4-4.1,2.2-9.2-0.6-13.1c-4-5.7-8.9-10.8-14.4-15.1v-17
		c5.5-4.3,10.4-9.3,14.4-15c2.7-3.9,2.9-9,0.6-13.1L463,61.3c-2.4-4.1-6.9-6.5-11.6-6c-6.9,0.6-13.7,2.3-20.2,4.9l-14.8-8.5
		c-0.9-6.9-2.9-13.6-5.8-20c-2-4.3-6.3-7-11.1-7h-39.7c-4.7,0-9.1,2.8-11.1,7.1c-2.9,6.3-4.9,13.1-5.8,20l-14.8,8.5
		c-6.5-2.6-13.3-4.3-20.2-4.9c-4.7-0.4-9.3,1.9-11.6,6l-19.8,34.4c-2.4,4.1-2.2,9.2,0.6,13.1c4,5.7,8.9,10.8,14.4,15v17
		C285.8,145.2,280.9,150.3,276.9,156z M306.8,104.9c-1.9-1.2-3.6-2.6-5.1-4.3l11.4-19.7c2,0.4,4,1,5.9,1.9c3.9,4.2,10.1,5.1,15,2.3
		l27.3-15.8c4.9-2.5,7.3-8.2,5.7-13.5c0.1-2.2,0.5-4.5,1.2-6.6H391c0.7,1.9,1.1,4,1.3,6c-1.7,5.4,0.6,11.3,5.5,14.1L425.2,85
		c4.7,3,10.8,2.2,14.6-1.9c2-1,4.1-1.8,6.3-2.2l11.4,19.7c-1.4,1.5-2.9,2.9-4.5,4.1c-5.5,1.3-9.5,6.2-9.5,11.9v31.7
		c-0.2,5.5,3.5,10.4,8.9,11.7c1.9,1.2,3.6,2.6,5.1,4.3L446.2,184c-2-0.4-4-1-5.8-1.8c-3.9-4.2-10.1-5.1-15-2.3l-27.4,15.8
		c-4.9,2.5-7.3,8.2-5.7,13.5c-0.1,2.3-0.5,4.5-1.2,6.6h-22.8c-0.7-2-1.1-4-1.3-6c1.7-5.4-0.6-11.3-5.6-14.1l-27.4-15.8
		c-4.7-3-10.8-2.2-14.6,1.8c-2,1.1-4.1,1.8-6.3,2.3l-11.4-19.7c1.4-1.5,2.9-2.9,4.5-4.1c5.5-1.3,9.5-6.2,9.5-11.9v-31.7
		c0.2-5.4-3.5-10.2-8.8-11.5V104.9z"/>
</g>
</svg>
