<?xml version="1.0" encoding="utf-8"?>
<!-- Generator: Adobe Illustrator 26.0.1, SVG Export Plug-In . SVG Version: 6.00 Build 0)  -->
<svg version="1.0" id="Layer_1" xmlns="http://www.w3.org/2000/svg" xmlns:xlink="http://www.w3.org/1999/xlink" x="0px" y="0px"
	 viewBox="0 0 512 512" style="enable-background:new 0 0 512 512;" xml:space="preserve">
<style type="text/css">
	.st0{display:none;}
	.st1{display:inline;fill:#FFFFFF;}
	.st2{display:inline;}
	.st3{fill:#FFFFFF;}
</style>
<g class="st0">
	<path class="st1" d="M256,247.9c-25.3,0-49.1-9.9-67-27.8c-17.9-17.9-27.8-41.7-27.8-67s9.9-49.1,27.8-67
		c17.9-17.9,41.7-27.8,67-27.8c25.3,0,49.1,9.9,67,27.8c17.9,17.9,27.8,41.7,27.8,67s-9.9,49.1-27.8,67
		C305.1,238,281.3,247.9,256,247.9z M256,73.1c-44.1,0-80,35.9-80,80s35.9,80,80,80s80-35.9,80-80S300.1,73.1,256,73.1z"/>
	<path class="st1" d="M287.8,158.5L287.8,158.5c-2.6-3.8-6.6-7-11.8-9.4c-3.5-1.6-10-3.5-19.4-5.6c-11.1-2.5-15-4.5-16.3-5.7
		c-1.8-1.6-2.7-3.7-2.7-6.3c0-3,1.3-5.5,4-7.7c2.8-2.2,7.5-3.4,13.9-3.4c6.1,0,10.8,1.3,13.8,3.8c2.1,1.7,3.6,4.1,4.5,7.1
		c0.9,3.2,3.7,5.3,7,5.3c0.2,0,0.4,0,0.6,0l0.1,0c1.7-0.1,3.2-0.8,4.5-1.9c2.1-1.9,2.9-4.8,2.1-7.4c-0.8-2.7-1.9-5.2-3.4-7.5
		c-2.8-4.3-6.8-7.5-12-9.7c-5.1-2.1-11-3.2-17.5-3.2c-6,0-11.5,1-16.4,3.1c-5,2.1-8.9,5.2-11.6,9.3c-2.6,4-4,8.5-4,13.1
		c0,4.3,1.1,8.2,3.3,11.7c2.2,3.4,5.5,6.3,9.8,8.6c3.3,1.7,9,3.6,17,5.5c7.8,1.9,12.8,3.3,15.1,4.1c3.3,1.2,5.6,2.8,6.9,4.5
		c1.3,1.7,2,3.7,2,6c0,2.3-0.7,4.4-2.1,6.3c-1.4,1.9-3.6,3.5-6.6,4.7c-3.1,1.2-6.7,1.8-10.8,1.8c-4.6,0-8.8-0.8-12.5-2.4
		c-3.6-1.6-6.2-3.6-7.9-6c-1-1.5-1.9-3.4-2.4-5.5c-0.9-3.2-3.8-5.5-7.1-5.5c-0.2,0-0.4,0-0.6,0c-2.1,0.2-4.1,1.3-5.3,3
		c-1.3,1.7-1.7,3.9-1.2,6c0.8,3.4,2.2,6.7,4.2,9.7c3.2,4.8,7.6,8.5,13.2,10.9c5.5,2.4,12.3,3.5,20.3,3.5c6.4,0,12.2-1.2,17.3-3.5
		c5.2-2.4,9.2-5.8,12-10.1c2.8-4.3,4.2-9,4.2-13.9C291.7,166.8,290.4,162.4,287.8,158.5z"/>
	<path class="st1" d="M256,211c-4.1,0-7.4-3.3-7.4-7.4v-5.4c0-4.1,3.3-7.4,7.4-7.4c4.1,0,7.4,3.3,7.4,7.4v5.4
		C263.4,207.7,260.1,211,256,211z M256,115.3c-4.1,0-7.4-3.3-7.4-7.4v-5.4c0-4.1,3.3-7.4,7.4-7.4c4.1,0,7.4,3.3,7.4,7.4v5.4
		C263.4,112,260.1,115.3,256,115.3z"/>
	<g class="st2">
		<path class="st3" d="M361.4,291.6H150.6c-10.4,0-20.4-2.1-29.9-6.3l-36.4-15.9c-3.7-1.6-5.4-6-3.8-9.8c1.6-3.7,6-5.5,9.8-3.8
			l36.3,15.9c7.6,3.3,15.7,5,23.9,5h210.8c8.3,0,16.3-1.7,23.9-5l36.3-15.9c3.7-1.6,8.1,0.1,9.8,3.8c1.6,3.7-0.1,8.1-3.8,9.8
			l-36.3,15.9C381.8,289.5,371.7,291.6,361.4,291.6z"/>
		<path class="st3" d="M433.6,412.4H78.4c-15.9,0-28.8-12.9-28.8-28.8v-69.3c0-8.8,2.9-17.5,8.2-24.5l68.1-90.9
			c11-14.6,26.9-24.7,44.8-28.3c4-0.8,7.9,1.8,8.7,5.8c0.8,4-1.8,7.9-5.8,8.7c-14.4,2.9-27.1,11-35.9,22.7l-68.1,90.9
			c-3.4,4.5-5.2,10-5.2,15.6v69.3c0,7.7,6.3,14,14,14h355.3c7.7,0,14-6.3,14-14v-69.3c0-5.6-1.8-11.2-5.2-15.6l-68.1-90.9
			c-8.8-11.7-21.5-19.8-35.9-22.7c-4-0.8-6.6-4.7-5.8-8.7c0.8-4,4.7-6.6,8.7-5.8c17.9,3.6,33.9,13.7,44.8,28.3l68.1,90.9
			c5.3,7,8.2,15.7,8.2,24.5v69.3C462.4,399.5,449.5,412.4,433.6,412.4z"/>
		<path class="st3" d="M312.1,370H199.9c-7.7,0-14.5-5.2-16.6-12.5l-4.7-16.3c-1.5-5.3-0.5-10.8,2.8-15.2c3.3-4.4,8.3-6.9,13.8-6.9
			h121.5c5.5,0,10.5,2.5,13.8,6.9c3.3,4.4,4.3,9.9,2.8,15.2l-4.7,16.3C326.6,364.9,319.8,370,312.1,370z M195.2,333.9
			c-1.1,0-1.7,0.6-2,1c-0.3,0.4-0.7,1.2-0.4,2.2l4.7,16.3c0.3,1.1,1.3,1.8,2.4,1.8h112.2c1.1,0,2.1-0.7,2.4-1.8l4.7-16.3
			c0.3-1-0.1-1.8-0.4-2.2c-0.3-0.4-0.9-1-2-1H195.2z M408.3,367.2c-0.3,0-0.7,0-1,0l-25.8-1.3c-11.4-0.6-20.3-9.9-20.3-21.3
			c0-11.4,8.9-20.8,20.3-21.3l25.8-1.3c5.8-0.3,11.6,1.8,15.8,5.9c4.2,4,6.6,9.7,6.6,15.5v2.6c0,5.8-2.4,11.5-6.6,15.5
			C419.1,365.1,413.8,367.2,408.3,367.2z M408.4,336.7c-0.1,0-0.2,0-0.3,0l-25.8,1.3c-3.5,0.2-6.2,3.1-6.2,6.6
			c0,3.5,2.7,6.4,6.2,6.6l25.8,1.3l0,0c1.8,0.1,3.5-0.5,4.9-1.8c1.3-1.3,2-2.9,2-4.8v-2.6c0-1.8-0.7-3.5-2-4.8
			C411.6,337.4,410,336.7,408.4,336.7z M103.7,367.2c-5.5,0-10.8-2.1-14.7-5.9c-4.2-4-6.6-9.7-6.6-15.5v-2.6
			c0-5.8,2.4-11.5,6.6-15.5c4.2-4,10-6.1,15.8-5.9l25.8,1.3c11.4,0.6,20.3,9.9,20.3,21.3c0,11.4-8.9,20.8-20.3,21.3l-25.8,1.3l0,0
			C104.4,367.2,104,367.2,103.7,367.2z M103.6,336.7c-1.7,0-3.3,0.6-4.5,1.8c-1.3,1.3-2,2.9-2,4.8v2.6c0,1.8,0.7,3.5,2,4.8
			c1.3,1.3,3,1.9,4.8,1.8l0,0l25.8-1.3c3.5-0.2,6.2-3.1,6.2-6.6s-2.7-6.4-6.2-6.6l-25.8-1.3C103.9,336.7,103.8,336.7,103.6,336.7z
			 M120.7,453.7h-15c-14.3,0-25.9-11.6-25.9-25.9V405c0-4.1,3.3-7.4,7.4-7.4h52c4.1,0,7.4,3.3,7.4,7.4v22.8
			C146.6,442.1,135,453.7,120.7,453.7z M94.6,412.4v15.4c0,6.1,5,11.1,11.1,11.1h15c6.1,0,11.1-5,11.1-11.1v-15.4H94.6z
			 M406.3,453.7h-15c-14.3,0-25.9-11.6-25.9-25.9V405c0-4.1,3.3-7.4,7.4-7.4h52c4.1,0,7.4,3.3,7.4,7.4v22.8
			C432.2,442.1,420.6,453.7,406.3,453.7z M380.2,412.4v15.4c0,6.1,5,11.1,11.1,11.1h15c6.1,0,11.1-5,11.1-11.1v-15.4H380.2z"/>
		<g>
			<path class="st3" d="M76,285.2H34.4c-8.5,0-15.4-6.9-15.4-15.4v-14.3c0-8.5,6.9-15.4,15.4-15.4H63c5.9,0,11.4,3.4,13.9,8.8
				l9.7,20.4c1.8,3.7,0.2,8.1-3.4,9.8C82.7,282.5,79.6,285.2,76,285.2z M34.4,254.8c-0.3,0-0.6,0.3-0.6,0.6v14.3
				c0,0.3,0.3,0.6,0.6,0.6h36.4l-7.2-15.2c-0.1-0.2-0.3-0.4-0.6-0.4L34.4,254.8L34.4,254.8z M477.6,285.2H436
				c-3.7,0-6.7-2.7-7.3-6.1c-3.6-1.8-5.2-6.2-3.4-9.8l9.7-20.4c2.5-5.3,8-8.8,13.9-8.8h28.6c8.5,0,15.4,6.9,15.4,15.4v14.3
				C493,278.2,486.1,285.2,477.6,285.2z M441.2,270.4h36.4c0.3,0,0.6-0.3,0.6-0.6v-14.3c0-0.3-0.3-0.6-0.6-0.6H449
				c-0.2,0-0.5,0.1-0.6,0.4L441.2,270.4z"/>
		</g>
	</g>
</g>
<g>
	<path class="st3" d="M38.5,248.7c-4.4,8.9-4.7,19.4-0.7,28.5l41,128.6c5.8,17.8,15.2,34.2,27.6,48.3c10.8,12.1,24,21.8,38.6,28.8
		c24.5,11.6,51.4,17.5,78.6,17.1c3.9,0,7.8-0.1,11.8-0.3c5.5-0.3,11.3-0.4,17.9-0.4c13.8,0,27.5-2.5,40.5-7.5
		c-4.9-3.5-9.5-7.3-13.9-11.4c-8.5,2.4-17.2,3.6-26,3.7h-0.5c-6.8,0-13,0.1-18.8,0.4c-28.5,2.1-57-3.2-82.9-15.3
		c-12.9-6-24.4-14.6-33.9-25.2c-11-12.4-19.3-26.9-24.5-42.6l-41.1-129c-0.1-0.2-0.2-0.5-0.3-0.7c-2.4-5.1-2.3-11,0.2-16
		c3.3-6.1,9-10.5,15.7-12.1l15.6-4.3c11.5-2.8,22.8,3.4,25.1,10.5l19.4,71.3c0,0.1,0.1,0.1,0.1,0.2c0,0.3,0,0.7,0,1
		c0.6,4.2,4.4,7.1,8.6,6.5c0,0,0,0,0,0c14.9-1.6,29.8,3.2,40.9,13.2c13.1,10.6,21.2,26.2,22.6,43c0.1,4.1,3.5,7.4,7.6,7.4
		c0.1,0,0.2,0,0.3,0c4.2-0.1,7.5-3.7,7.4-7.9l0,0c-1.4-21.1-11.5-40.8-28-54.1c-12.7-11.1-28.9-17.3-45.8-17.2l-8.2-30.1
		c0.1-0.6,0.2-1.2,0.2-1.7l0.4-193c1.3-10.1,9.5-17.9,19.7-18.8l12.5-0.1h0.1c4.9,0.2,9.6,2.3,13,5.9c1.9,1.9,3.4,4,4.4,6.4V233
		c0,4.2,3.4,7.6,7.6,7.6s7.6-3.4,7.6-7.6V41.4c0-6.6,11.1-13.9,21.2-14l11.2-0.1c7.5,0.7,19.9,4.3,20.7,20.3
		c0.2,5.7,0.2,180.2,0.1,184.9c-0.2,4.2,3,7.8,7.2,8c0.1,0,0.3,0,0.4,0c4,0,7.4-3.2,7.6-7.2c0.2-3.2,0.2-106.2,0.1-157.7
		c0.9-1.7,2-3.2,3.4-4.5c3.7-3.6,8.7-5.7,13.9-5.7l12.7,0c9.9,0.2,19.3,7.8,19.2,15.8l0.5,151.7c0,4.2,3.4,7.6,7.6,7.6h0
		c4.2,0,7.6-3.4,7.6-7.6c0,0,0,0,0,0l-0.4-125.4l19.6,0c4.8-0.2,9.5,1.6,12.9,5c3.8,4,5.9,9.4,5.9,15v136.2
		c5.1,0.1,10.2,0.6,15.2,1.3V127.5c0.1-9.6-3.6-18.8-10.3-25.7c-6.3-6.3-14.9-9.7-23.7-9.5l-19.6,0l0-11c0.1-16.2-15.9-30.7-34.3-31
		l-12.7,0c-6.1,0-12.2,1.6-17.5,4.7c0-4.6,0-7.4-0.1-7.9c-1.1-19.8-14.5-33.1-35-34.8c-0.2,0-0.4,0-0.7,0L220,12.2
		c-17.1,0.1-36.2,12.6-36.3,29.2v17.9c-5.2-3.4-11.2-5.2-17.4-5.3h-0.2L153.6,54c-17.8,0.1-34.7,16.6-34.9,34l-0.3,148.5
		c-9.6-11.1-24.6-15.9-38.9-12.2L64,228.6C53,231.3,43.7,238.6,38.5,248.7z"/>
	<path class="st3" d="M477,389.3c0-61-49.4-110.5-110.4-110.6c-61,0-110.5,49.4-110.6,110.4c0,61,49.4,110.5,110.4,110.6
		c0,0,0,0,0.1,0C427.5,499.7,476.9,450.3,477,389.3z M366.5,484.5c-52.6,0-95.2-42.7-95.1-95.3s42.7-95.2,95.3-95.1
		c52.5,0,95.1,42.6,95.1,95.2C461.7,441.8,419.1,484.4,366.5,484.5z"/>
	<path class="st3" d="M418.3,345.8l-70.8,70.8l-32.7-32.7c-3-3-7.8-3-10.8,0c-3,3-3,7.8,0,10.8c0,0,0,0,0,0l38.1,38.1
		c0.2,0.2,0.4,0.3,0.5,0.4c0.2,0.2,0.4,0.4,0.7,0.5c0,0,0.1,0,0.1,0c2.8,1.8,6.5,1.6,9-0.6c0.2-0.1,0.3-0.2,0.5-0.4l76.2-76.2
		c3-3,3-7.8,0-10.8C426.1,342.8,421.3,342.8,418.3,345.8C418.3,345.8,418.3,345.8,418.3,345.8L418.3,345.8z"/>
</g>
</svg>
